<svg xmlns="http://www.w3.org/2000/svg" fill="none" viewBox="0 0 1440 345"><path fill="#F5F5F5" d="M631.592 9.32c-1.73 14.414-6.824 31.998-9.322 31.998-.673 0-5.286-1.921-10.187-4.227-7.88-3.652-19.893-7.303-24.314-7.303-1.153 0-.576 1.73 2.211 7.399 4.228 8.552 8.072 21.908 7.592 26.52l-.289 3.075-8.649.673c-25.178 1.921-36.999 3.075-36.999 3.555 0 .384 4.229 4.9 9.418 10.185 9.707 9.802 16.818 20.275 16.337 23.927-.192 1.345-5.093 5.38-15.183 12.395-8.169 5.67-14.992 10.762-15.184 11.243-.193.48.864 1.153 2.402 1.537 10.283 2.211 14.704 3.651 18.355 5.766 4.998 2.978 10.187 7.399 12.782 11.05l1.922 2.69-10.764 10.666c-9.033 9.032-10.571 10.859-9.417 11.915.768.673 6.534 2.883 12.877 4.805 6.343 1.922 11.917 3.94 12.397 4.42.481.48-.288 5.381-2.114 12.107-1.634 6.246-2.691 11.723-2.403 12.203.481.865 16.338.096 18.932-.864 2.403-.865 3.364 1.441 4.037 9.032.384 4.42.961 8.168 1.345 8.359.769.482 11.532-4.131 11.532-4.9 0-.288-1.249-2.306-2.787-4.516-4.42-6.438-7.4-13.068-10.187-22.293-1.345-4.804-3.363-11.242-4.324-14.413-1.057-3.171-2.114-7.495-2.306-9.609-1.346-10.185-1.538-13.933-.577-13.933.48 0 .961 1.634.961 3.555.096 4.325 2.21 15.855 3.652 19.987.576 1.537 2.402 7.207 4.036 12.491 3.94 12.396 9.61 23.543 14.511 28.443 2.307 2.306 7.304 5.573 12.109 7.783l8.072 3.748-.287 3.555-.289 3.556-21.431 7.11-21.43 7.206-2.787 9.129c-1.538 5.093-5.862 20.179-9.706 33.632-3.844 13.356-7.496 24.886-8.073 25.463-.576.576-2.306 5.765-3.748 11.626-1.441 5.766-2.787 11.339-3.075 12.205-.48 1.633 3.364 1.729 71.595 1.729 68.328 0 72.173-.096 72.173-1.729 0-.866-4.517-5.862-10.091-11.051-5.574-5.189-10.091-9.993-10.091-10.762 0-.673 3.46-4.228 7.592-7.879 10.571-9.032 10.668-9.609 6.343-20.66-7.304-18.544-22.968-47.18-28.735-52.56-1.826-1.73-2.499-3.364-2.499-5.958 0-3.94.866-4.9 5.767-6.534 4.997-1.633 9.898-5.381 13.262-10.089 2.691-3.748 3.844-4.42 11.243-6.726 4.518-1.442 8.169-2.98 8.169-3.364 0-.48-1.729-2.978-3.844-5.477-4.132-4.997-4.901-8.552-2.114-9.417.865-.288 4.229-.769 7.4-1.153 3.171-.288 6.054-.769 6.438-1.057.866-.385-4.035-14.028-5.188-14.51-.385-.191-.77-1.056-.77-2.017 0-1.153 1.346-2.018 4.805-2.883 5.958-1.537 20.181-8.36 20.181-9.609 0-.576-1.825-1.922-4.035-3.075-12.301-6.246-22.296-13.452-20.278-14.605.384-.192 3.94-1.345 7.784-2.498 3.844-1.153 10.091-3.555 13.934-5.286 6.632-2.978 20.279-11.05 19.701-11.626-.384-.288-26.428-11.435-28.926-12.3-1.153-.48-1.441-1.057-.961-1.922.384-.768 6.727-6.918 14.031-13.644 7.208-6.822 13.166-12.684 13.166-13.068 0-.769-5.959-1.826-23.545-4.324-6.343-.961-11.917-1.922-12.301-2.306-.48-.385 3.941-8.84 9.802-18.738 9.515-16.239 11.341-19.698 10.379-19.698-.192 0-8.073 2.786-17.49 6.246-13.743 4.996-17.491 5.957-18.451 4.996-2.115-2.114-4.133-17.968-4.133-32.19V2.787l-7.784 4.131c-9.13 4.901-21.334 14.414-27.004 21.044-2.115 2.594-4.325 4.708-4.709 4.708-.481 0-4.133-4.42-8.265-9.897C646.68 13.356 634.667 0 633.321 0c-.384 0-1.153 4.228-1.729 9.32Zm2.69 240.8c-3.555 2.787-21.718 50.736-20.277 53.234.48.864 4.613 4.804 9.226 8.841 4.709 4.035 8.649 7.783 8.841 8.359.192.577-.961 2.691-2.595 4.708-1.537 2.018-2.883 3.075-2.883 2.402 0-.576.865-2.306 2.018-3.651l2.019-2.594-9.226-8.648c-6.439-6.054-9.226-9.321-9.226-10.859 0-3.074 10.956-32.478 17.683-47.563 1.633-3.652 2.979-5.478 4.132-5.478 1.538.096 1.538.192.288 1.249Z"/><path fill="#F5F5F5" d="M794.974 135.302c-26.963 4.917-41.836 15.618-61.122 44.253-4.222 6.171-4.511 6.942-4.511 12.92 0 4.627-.959 9.159-3.453 16.968-4.222 13.209-4.031 16.294 2.014 26.61 2.399 4.05 4.318 7.907 4.318 8.388 0 .579-1.248 2.411-2.879 4.146-5.085 5.495-4.989 13.979.289 19.668 3.07 3.182 10.267 6.17 12.186 4.917.479-.289-.192-2.507-1.44-5.014-1.343-2.41-2.399-5.109-2.303-5.977 0-.964.48-.675 1.056.868 1.631 3.567 9.211 15.33 12.953 19.957 7.389 9.256 23.317 18.608 38.19 22.561 4.51 1.157 12.474 2.217 19.191 2.507 6.332.289 10.65.867 9.595 1.253-5.757 2.024-32.241-1.736-44.427-6.363l-6.332-2.41-1.632 2.217c-6.045 8.002-12.954 26.225-14.681 38.565l-.479 3.664h59.491c56.229 0 59.491-.097 59.011-1.735-.287-.868-1.823-6.653-3.357-12.824-3.359-13.304-6.046-19.957-10.364-25.645-1.727-2.314-3.166-4.724-3.166-5.399.095-.579 2.494-2.893 5.469-5.014 5.373-3.857 12.762-11.666 16.792-17.836 1.343-2.025 3.454-3.664 5.374-4.242 1.631-.483 4.701-2.507 6.812-4.435 6.621-6.364 7.293-15.041 1.439-20.151-2.015-1.735-2.303-2.603-1.727-5.688.384-1.928.959-3.76 1.344-4.05.383-.288 1.247-3.085 1.919-6.267.959-4.627.959-8.194 0-18.125-.672-6.749-1.632-12.244-2.112-12.244-.479 0-.767-2.7-.671-6.075.192-5.302-.288-6.941-3.743-13.69-4.605-9.16-11.418-19.186-18.327-26.706-4.221-4.629-7.004-6.46-17.847-11.859-7.676-3.76-15.545-6.942-19.382-7.713-7.964-1.736-24.277-1.736-33.488 0ZM682 240.556c0 .289 1.841 2.986 4.165 5.973 2.325 2.988 5.522 7.709 7.266 10.31 4.553 7.226 15.113 29.772 18.213 38.733 3.39 9.538 3.1 10.213-7.073 18.788-3.875 3.276-7.071 6.745-7.071 7.515 0 .868 4.358 5.492 9.687 10.503 5.813 5.299 9.687 9.635 9.687 10.791 0 1.735.776 1.831 13.563 1.831 10.172 0 13.563-.289 13.563-1.253 0-4.047-23.735-88.931-25.963-92.978-.387-.771-6.587-2.794-13.756-4.625-7.169-1.734-14.628-3.854-16.663-4.721-3.971-1.542-5.618-1.83-5.618-.867Z"/></svg>